<svg xmlns="http://www.w3.org/2000/svg" viewBox="178.17 358.11 723.66 363.77" width="723.66" height="363.77" role="img" aria-label="FOTO Studio" xmlns:c2pa="http://c2pa.org/manifest"><metadata><c2pa:manifest>AAAWgmp1bWIAAAAeanVtZGMycGEAEQAQgAAAqgA4m3EDYzJwYQAAABZcanVtYgAAAEdqdW1kYzJtYQARABCAAACqADibcQN1cm46YzJwYTo2ZmY0ZGRlYi01YTk5LTQyMzEtOTAwYy01ZTg3M2EyMmFjYzQAAAADl2p1bWIAAAApanVtZGMyYXMAEQAQgAAAqgA4m3EDYzJwYS5hc3NlcnRpb25zAAAAALxqdW1iAAAARGp1bWRjYm9yABEAEIAAAKoAOJtxE2MycGEuaW5ncmVkaWVudC52MwAAAAAYYzJzaPS6dxZbKCcWInxRMPzW7DsAAABwY2JvcqNpZGM6Zm9ybWF0bWltYWdlL3N2Zyt4bWxqaW5zdGFuY2VJRHgseG1wOmlpZDowOTc1MWMxZC02ZTk4LTQ0M2QtYTk4Mi1mZDY0NTQ2N2VkNzZscmVsYXRpb25zaGlwaHBhcmVudE9mAAAB4mp1bWIAAABBanVtZGNib3IAEQAQgAAAqgA4m3ETYzJwYS5hY3Rpb25zLnYyAAAAABhjMnNo0+KfkHDfgpFSYdNC3/eKtQAAAZljYm9yomdhY3Rpb25zgqJmYWN0aW9ua2MycGEub3BlbmVkanBhcmFtZXRlcnOha2luZ3JlZGllbnRzgaJjdXJseC1zZWxmI2p1bWJmPWMycGEuYXNzZXJ0aW9ucy9jMnBhLmluZ3JlZGllbnQudjNkaGFzaFggT5+0ZpVcAcfb6yfnUL8CQ1A+miWvQpu1E6/l9JaRRZukZmFjdGlvbngdY29tLmFudGhyb3BpYy5jbGF1ZGUucHJvdmlkZWRqcGFyYW1ldGVyc6F4H2NvbS5hbnRocm9waWMub3JpZ2luLWNvbmZpZGVuY2VndW5rbm93bmtkZXNjcmlwdGlvbnhmQ2xhdWRlIHByb3ZpZGVkIHRoaXMgZmlsZSBhdCB0aGUgcmVxdWVzdCBvZiBhIHVzZXIgYW5kIG1heSBoYXZlIGNyZWF0ZWQgb3IgbW9kaWZpZWQgdGhlIGZpbGUgY29udGVudHMubXNvZnR3YXJlQWdlbnShZG5hbWVmQ2xhdWRlcmFsbEFjdGlvbnNJbmNsdWRlZPUAAADIanVtYgAAAEBqdW1kY2JvcgARABCAAACqADibcRNjMnBhLmhhc2guZGF0YQAAAAAYYzJzaGdzx1/mqPEXZ3rU/SYD5nIAAACAY2JvcqVjYWxnZnNoYTI1NmNwYWRNAAAAAAAAAAAAAAAAAGRoYXNoWCDCbIJcs7pyvrVSIw0DURN5WKcBPqAys34aLLOLppWdHWRuYW1lbmp1bWJmIG1hbmlmZXN0amV4Y2x1c2lvbnOBomVzdGFydBjQZmxlbmd0aBkeBAAAAj5qdW1iAAAAJ2p1bWRjMmNsABEAEIAAAKoAOJtxA2MycGEuY2xhaW0udjIAAAACD2Nib3KlY2FsZ2ZzaGEyNTZpc2lnbmF0dXJleE1zZWxmI2p1bWJmPS9jMnBhL3VybjpjMnBhOjZmZjRkZGViLTVhOTktNDIzMS05MDBjLTVlODczYTIyYWNjNC9jMnBhLnNpZ25hdHVyZWppbnN0YW5jZUlEeCx4bXA6aWlkOjg5Yjk5YTMwLWQ2ZDItNGRmZi05NzRhLTkxOTIxOGZkYmNlYnJjcmVhdGVkX2Fzc2VydGlvbnODomN1cmx4LXNlbGYjanVtYmY9YzJwYS5hc3NlcnRpb25zL2MycGEuaW5ncmVkaWVudC52M2RoYXNoWCBPn7RmlVwBx9vrJ+dQvwJDUD6aJa9Cm7UTr+X0lpFFm6JjdXJseCpzZWxmI2p1bWJmPWMycGEuYXNzZXJ0aW9ucy9jMnBhLmFjdGlvbnMudjJkaGFzaFggp8IQnqg+O7xFYh4+jvb9euII72idL6eSB0hJs7b7gkCiY3VybHgpc2VsZiNqdW1iZj1jMnBhLmFzc2VydGlvbnMvYzJwYS5oYXNoLmRhdGFkaGFzaFggB0W+0Pw9iUey3tWz6MtWerj/i49YgaFK3eWDeagP0xl0Y2xhaW1fZ2VuZXJhdG9yX2luZm+jZG5hbWVvQW50aHJvcGljIEZpbGVzZ3ZlcnNpb25lMS4wLjBrc3BlY1ZlcnNpb25lMi40LjAAABA4anVtYgAAAChqdW1kYzJjcwARABCAAACqADibcQNjMnBhLnNpZ25hdHVyZQAAABAIY2JvctKEWQISogEmGCFZAgowggIGMIIBjaADAgECAhRA5aAK7sI50L64g/oGQgU9Z1UTADAKBggqhkjOPQQDAzBJMRcwFQYDVQQKEw5BbnRocm9waWMsIFBCQzEuMCwGA1UEAxMlQW50aHJvcGljIENvbnRlbnQgQ3JlZGVudGlhbHMgUm9vdCBDQTAeFw0yNjA4MDcxODQzNTZaFw0yODA4MDYxOTQzNTZaMEQxFzAVBgNVBAoTDkFudGhyb3BpYywgUEJDMSkwJwYDVQQDEyBBbnRocm9waWMgQ2xhdWRlIENvbnRlbnQgU2lnbmluZzBZMBMGByqGSM49AgEGCCqGSM49AwEHA0IABJh6CmvLUBgFFNU0vUKlOVtE6djd17L5SuwX0LemFisBM3dkd/3cyjxFA3Qo5S46fX0/ihY0VZ7mfb9KF703t5OjWDBWMA4GA1UdDwEB/wQEAwIHgDAVBgNVHSUEDjAMBgorBgEEAYPoXgIBMAwGA1UdEwEB/wQCMAAwHwYDVR0jBBgwFoAUzlHiBIFOZFsj+OPEz5o+nMHXXMIwCgYIKoZIzj0EAwMDZwAwZAIwMXMdFJ4BetLLVY7ORuE9noqbbAZOZn/aArXyTwFAZfKrPzxF2vPoJNf1+UCdg1XGAjBwX1zd9WGqYkqmL5SFqw1QySjr1zJfpJM9+1rdDwSPLMOPOjKuiXjoU/pUUeG9RwmhY3BhZFkNngAAAAAAAAAAAAAAAAAAAAAAAAAAAAAAAAAAAAAAAAAAAAAAAAAAAAAAAAAAAAAAAAAAAAAAAAAAAAAAAAAAAAAAAAAAAAAAAAAAAAAAAAAAAAAAAAAAAAAAAAAAAAAAAAAAAAAAAAAAAAAAAAAAAAAAAAAAAAAAAAAAAAAAAAAAAAAAAAAAAAAAAAAAAAAAAAAAAAAAAAAAAAAAAAAAAAAAAAAAAAAAAAAAAAAAAAAAAAAAAAAAAAAAAAAAAAAAAAAAAAAAAAAAAAAAAAAAAAAAAAAAAAAAAAAAAAAAAAAAAAAAAAAAAAAAAAAAAAAAAAAAAAAAAAAAAAAAAAAAAAAAAAAAAAAAAAAAAAAAAAAAAAAAAAAAAAAAAAAAAAAAAAAAAAAAAAAAAAAAAAAAAAAAAAAAAAAAAAAAAAAAAAAAAAAAAAAAAAAAAAAAAAAAAAAAAAAAAAAAAAAAAAAAAAAAAAAAAAAAAAAAAAAAAAAAAAAAAAAAAAAAAAAAAAAAAAAAAAAAAAAAAAAAAAAAAAAAAAAAAAAAAAAAAAAAAAAAAAAAAAAAAAAAAAAAAAAAAAAAAAAAAAAAAAAAAAAAAAAAAAAAAAAAAAAAAAAAAAAAAAAAAAAAAAAAAAAAAAAAAAAAAAAAAAAAAAAAAAAAAAAAAAAAAAAAAAAAAAAAAAAAAAAAAAAAAAAAAAAAAAAAAAAAAAAAAAAAAAAAAAAAAAAAAAAAAAAAAAAAAAAAAAAAAAAAAAAAAAAAAAAAAAAAAAAAAAAAAAAAAAAAAAAAAAAAAAAAAAAAAAAAAAAAAAAAAAAAAAAAAAAAAAAAAAAAAAAAAAAAAAAAAAAAAAAAAAAAAAAAAAAAAAAAAAAAAAAAAAAAAAAAAAAAAAAAAAAAAAAAAAAAAAAAAAAAAAAAAAAAAAAAAAAAAAAAAAAAAAAAAAAAAAAAAAAAAAAAAAAAAAAAAAAAAAAAAAAAAAAAAAAAAAAAAAAAAAAAAAAAAAAAAAAAAAAAAAAAAAAAAAAAAAAAAAAAAAAAAAAAAAAAAAAAAAAAAAAAAAAAAAAAAAAAAAAAAAAAAAAAAAAAAAAAAAAAAAAAAAAAAAAAAAAAAAAAAAAAAAAAAAAAAAAAAAAAAAAAAAAAAAAAAAAAAAAAAAAAAAAAAAAAAAAAAAAAAAAAAAAAAAAAAAAAAAAAAAAAAAAAAAAAAAAAAAAAAAAAAAAAAAAAAAAAAAAAAAAAAAAAAAAAAAAAAAAAAAAAAAAAAAAAAAAAAAAAAAAAAAAAAAAAAAAAAAAAAAAAAAAAAAAAAAAAAAAAAAAAAAAAAAAAAAAAAAAAAAAAAAAAAAAAAAAAAAAAAAAAAAAAAAAAAAAAAAAAAAAAAAAAAAAAAAAAAAAAAAAAAAAAAAAAAAAAAAAAAAAAAAAAAAAAAAAAAAAAAAAAAAAAAAAAAAAAAAAAAAAAAAAAAAAAAAAAAAAAAAAAAAAAAAAAAAAAAAAAAAAAAAAAAAAAAAAAAAAAAAAAAAAAAAAAAAAAAAAAAAAAAAAAAAAAAAAAAAAAAAAAAAAAAAAAAAAAAAAAAAAAAAAAAAAAAAAAAAAAAAAAAAAAAAAAAAAAAAAAAAAAAAAAAAAAAAAAAAAAAAAAAAAAAAAAAAAAAAAAAAAAAAAAAAAAAAAAAAAAAAAAAAAAAAAAAAAAAAAAAAAAAAAAAAAAAAAAAAAAAAAAAAAAAAAAAAAAAAAAAAAAAAAAAAAAAAAAAAAAAAAAAAAAAAAAAAAAAAAAAAAAAAAAAAAAAAAAAAAAAAAAAAAAAAAAAAAAAAAAAAAAAAAAAAAAAAAAAAAAAAAAAAAAAAAAAAAAAAAAAAAAAAAAAAAAAAAAAAAAAAAAAAAAAAAAAAAAAAAAAAAAAAAAAAAAAAAAAAAAAAAAAAAAAAAAAAAAAAAAAAAAAAAAAAAAAAAAAAAAAAAAAAAAAAAAAAAAAAAAAAAAAAAAAAAAAAAAAAAAAAAAAAAAAAAAAAAAAAAAAAAAAAAAAAAAAAAAAAAAAAAAAAAAAAAAAAAAAAAAAAAAAAAAAAAAAAAAAAAAAAAAAAAAAAAAAAAAAAAAAAAAAAAAAAAAAAAAAAAAAAAAAAAAAAAAAAAAAAAAAAAAAAAAAAAAAAAAAAAAAAAAAAAAAAAAAAAAAAAAAAAAAAAAAAAAAAAAAAAAAAAAAAAAAAAAAAAAAAAAAAAAAAAAAAAAAAAAAAAAAAAAAAAAAAAAAAAAAAAAAAAAAAAAAAAAAAAAAAAAAAAAAAAAAAAAAAAAAAAAAAAAAAAAAAAAAAAAAAAAAAAAAAAAAAAAAAAAAAAAAAAAAAAAAAAAAAAAAAAAAAAAAAAAAAAAAAAAAAAAAAAAAAAAAAAAAAAAAAAAAAAAAAAAAAAAAAAAAAAAAAAAAAAAAAAAAAAAAAAAAAAAAAAAAAAAAAAAAAAAAAAAAAAAAAAAAAAAAAAAAAAAAAAAAAAAAAAAAAAAAAAAAAAAAAAAAAAAAAAAAAAAAAAAAAAAAAAAAAAAAAAAAAAAAAAAAAAAAAAAAAAAAAAAAAAAAAAAAAAAAAAAAAAAAAAAAAAAAAAAAAAAAAAAAAAAAAAAAAAAAAAAAAAAAAAAAAAAAAAAAAAAAAAAAAAAAAAAAAAAAAAAAAAAAAAAAAAAAAAAAAAAAAAAAAAAAAAAAAAAAAAAAAAAAAAAAAAAAAAAAAAAAAAAAAAAAAAAAAAAAAAAAAAAAAAAAAAAAAAAAAAAAAAAAAAAAAAAAAAAAAAAAAAAAAAAAAAAAAAAAAAAAAAAAAAAAAAAAAAAAAAAAAAAAAAAAAAAAAAAAAAAAAAAAAAAAAAAAAAAAAAAAAAAAAAAAAAAAAAAAAAAAAAAAAAAAAAAAAAAAAAAAAAAAAAAAAAAAAAAAAAAAAAAAAAAAAAAAAAAAAAAAAAAAAAAAAAAAAAAAAAAAAAAAAAAAAAAAAAAAAAAAAAAAAAAAAAAAAAAAAAAAAAAAAAAAAAAAAAAAAAAAAAAAAAAAAAAAAAAAAAAAAAAAAAAAAAAAAAAAAAAAAAAAAAAAAAAAAAAAAAAAAAAAAAAAAAAAAAAAAAAAAAAAAAAAAAAAAAAAAAAAAAAAAAAAAAAAAAAAAAAAAAAAAAAAAAAAAAAAAAAAAAAAAAAAAAAAAAAAAAAAAAAAAAAAAAAAAAAAAAAAAAAAAAAAAAAAAAAAAAAAAAAAAAAAAAAAAAAAAAAAAAAAAAAAAAAAAAAAAAAAAAAAAAAAAAAAAAAAAAAAAAAAAAAAAAAAAAAAAAAAAAAAAAAAAAAAAAAAAAAAAAAAAAAAAAAAAAAAAAAAAAAAAAAAAAAAAAAAAAAAAAAAAAAAAAAAAAAAAAAAAAAAAAAAAAAAAAAAAAAAAAAAAAAAAAAAAAAAAAAAAAAAAAAAAAAAAAAAAAAAAAAAAAAAAAAAAAAAAAAAAAAAAAAAAAAAAAAAAAAAAAAAAAAAAAAAAAAAAAAAAAAAAAAAAAAAAAAAAAAAAAAAAAAAAAAAAAAAAAAAAAAAAAAAAAAAAAAAAAAAAAAAAAAAAAAAAAAAAAAAAAAAAAAAAAAAAAAAAAAAAAAAAAAAAAAAAAAAAAAAAAAAAAAAAAAAAAAAAAAAAAAAAAAAAAAAAAAAAAAAAAAAAAAAAAAAAAAAAAAAAAAAAAAAAAAAAAAAAAAAAAAAAAAAAAAAAAAAAAAAAAAAAAAAAAAAAAAAAAAAAAAAAAAAAAAAAAAAAAAAAAAAAAAAAAAAAAAAAAAAAAAAAAAAAAAAAAAAAAAAAAAAAAAAAAAAAAAAAAAAAAAAAAAAAAAAAAAAAAAAAAAAAAAAAAAAAAAAAAAAAAAAAAAAAAAAAAAAAAAAAAAAAAAAAAAAAAAAAAAAAAAAAAAAAAAAAAAAAAAAAAAAAAAAAAAAAAAAAAAAAAAAAAAAAAAAAAAAAAAAAAAAAAAAAAAAAAAAAAAAAAAAAAAAAAAAAAAAAAAAAAAAAAAAAAAAAAAAAAAAAAAAAAAAAAAAAAAAAAAAAAAAAAAAAAAAAAAAAAAAAAAAAAAAAAAAAAAAAAAAAAAAAAAAAAAAAAAAAAAAAAAAAAAAAAAAAAAAAAAAAAAAAAAAAAAAAAAAAAAAAAAAAAAAAAAAAAAAAAAAAAAAAAAAAAAAAAAAAAAAAAAAAAAAAAAAAAAAAAAAAAAAAAAAAAAAAAAAAAAAAAAAAAAAAAAAAAAAAAAAAAAAAAAAAAAAAAAAAAAAAAAAAAAAAAAAAAAAAAAAAAAAAAAAAAAAAAAAAAAAAAAAAAAAAAAAAAAAAAAAAAAAAAAAAAAAAAAAAAAAAAAAAAAAAAAAAAAAAAAAAAAAAAAAAAAAAAAAAAAAAAAAAAAAAAAAAAAAAAAAAAAAAAAAAAAAAAAAAAAAAAAAAAAAAAAAAAAAAAAAAAAAAAAAAAAAAAAAAAAAAAAAAAAAAAAAAAAAAAAAAAAAAAAAAAAAAAAAAAAAAAAAAAAAAAAAAAAAAAAAAAAAAAAAAAAAAAAAAAAAAAAAAAAAAAAAAAAAAAAAAAAAAAAAAAAAAAAAAAAAAAAAAAAAAAAAAAAAAAAAAAAAAAAAAAAAAAAAAAAAAAAAAAAAAAAAAAAAAAAAAAAAAAAAAAAAPZYQAKsMCtBbGeI2I7mi1/ZAeCDtXexOTBGHXHWkiSAKggEH5YZTM2nyqs1t6+wTeKFeLam5hueZGdd8dbzEOiqNNQ=</c2pa:manifest></metadata><title>FOTO Studio</title><g fill="#000000"><path d="M 347.44 637.43 C 344.17 636.56 341.64 635.41 339.85 633.98 L 341.84 630.99 C 343.58 632.32 345.89 633.39 348.78 634.21 C 351.67 635.03 354.65 635.44 357.72 635.44 C 362.02 635.44 365.25 634.84 367.41 633.64 C 369.56 632.43 370.64 630.87 370.64 628.95 C 370.64 627.48 370.05 626.32 368.88 625.45 C 367.71 624.57 366.28 623.9 364.59 623.43 C 362.89 622.96 360.54 622.45 357.51 621.89 C 353.89 621.19 351 620.52 348.85 619.87 C 346.7 619.22 344.86 618.24 343.32 616.91 C 341.79 615.59 341.02 613.79 341.02 611.52 C 341.02 609.67 341.66 607.99 342.94 606.47 C 344.22 604.95 346.2 603.74 348.85 602.83 C 351.51 601.93 354.81 601.47 358.75 601.47 C 361.5 601.47 364.19 601.76 366.82 602.33 C 369.46 602.91 371.73 603.7 373.66 604.71 L 371.94 607.8 C 369.93 606.79 367.77 606.03 365.48 605.53 C 363.19 605.02 360.95 604.77 358.75 604.77 C 354.53 604.77 351.36 605.39 349.23 606.62 C 347.1 607.86 346.04 609.46 346.04 611.41 C 346.04 612.88 346.62 614.06 347.79 614.95 C 348.95 615.84 350.42 616.52 352.18 616.99 C 353.95 617.46 356.32 617.98 359.3 618.54 C 362.82 619.2 365.68 619.85 367.85 620.5 C 370.03 621.14 371.87 622.12 373.39 623.43 C 374.9 624.74 375.65 626.51 375.65 628.74 C 375.65 630.59 375 632.28 373.7 633.79 C 372.39 635.31 370.38 636.52 367.68 637.41 C 364.98 638.3 361.66 638.74 357.72 638.74 C 354.14 638.74 350.72 638.3 347.44 637.43"/><path d="M 422.86 605.13 L 405.96 605.13 L 405.96 601.79 L 444.86 601.79 L 444.86 605.13 L 427.95 605.13 L 427.95 638.43 L 422.86 638.43 Z M 422.86 605.13"/><path d="M 484.3 634.66 C 480.82 631.93 479.08 627.98 479.08 622.77 L 479.08 601.79 L 484.16 601.79 L 484.16 622.62 C 484.16 626.88 485.42 630.05 487.95 632.14 C 490.46 634.24 494.11 635.29 498.87 635.29 C 503.68 635.29 507.35 634.24 509.87 632.14 C 512.38 630.05 513.64 626.88 513.64 622.62 L 513.64 601.79 L 518.59 601.79 L 518.59 622.77 C 518.59 627.98 516.86 631.93 513.41 634.66 C 509.95 637.38 505.1 638.74 498.87 638.74 C 492.64 638.74 487.78 637.38 484.3 634.66"/><path d="M 580.72 635.07 C 584.93 635.07 588.62 634.44 591.78 633.16 C 594.94 631.89 597.39 630.13 599.13 627.88 C 600.88 625.63 601.75 623.04 601.75 620.11 C 601.75 617.18 600.88 614.58 599.13 612.33 C 597.39 610.08 594.94 608.32 591.78 607.05 C 588.62 605.77 584.93 605.13 580.72 605.13 L 566.49 605.13 L 566.49 635.07 Z M 561.41 601.79 L 580.99 601.79 C 586.08 601.79 590.57 602.56 594.46 604.11 C 598.36 605.67 601.38 607.83 603.53 610.61 C 605.68 613.38 606.76 616.55 606.76 620.11 C 606.76 623.66 605.68 626.83 603.53 629.61 C 601.38 632.38 598.36 634.55 594.46 636.1 C 590.57 637.65 586.08 638.43 580.99 638.43 L 561.41 638.43 Z M 561.41 601.79"/><path d="M 645.66 601.79 L 650.74 601.79 L 650.74 638.43 L 645.66 638.43 Z M 645.66 601.79"/><path d="M 725.24 633.32 C 728.31 632.02 730.71 630.2 732.45 627.88 C 734.2 625.56 735.07 622.97 735.07 620.11 C 735.07 617.24 734.2 614.65 732.45 612.33 C 730.71 610.01 728.31 608.2 725.24 606.89 C 722.17 605.58 718.73 604.93 714.93 604.93 C 711.13 604.93 707.68 605.58 704.59 606.89 C 701.5 608.2 699.07 610.01 697.3 612.33 C 695.54 614.65 694.66 617.24 694.66 620.11 C 694.66 622.97 695.54 625.56 697.3 627.88 C 699.07 630.2 701.5 632.02 704.59 633.32 C 707.68 634.63 711.13 635.29 714.93 635.29 C 718.73 635.29 722.17 634.63 725.24 633.32 M 701.98 636.31 C 698.11 634.68 695.08 632.46 692.91 629.63 C 690.73 626.8 689.64 623.63 689.64 620.11 C 689.64 616.58 690.73 613.41 692.91 610.58 C 695.08 607.75 698.11 605.53 701.98 603.91 C 705.85 602.28 710.16 601.47 714.93 601.47 C 719.7 601.47 723.99 602.27 727.82 603.88 C 731.64 605.48 734.65 607.71 736.85 610.55 C 739.05 613.4 740.15 616.58 740.15 620.11 C 740.15 623.63 739.05 626.82 736.85 629.66 C 734.65 632.5 731.64 634.73 727.82 636.33 C 723.99 637.94 719.7 638.74 714.93 638.74 C 710.16 638.74 705.85 637.93 701.98 636.31"/><path d="M 808.05 362.16 L 808.05 395.48 C 839.19 399.36 863.25 424.83 863.25 455.7 C 863.25 489.25 834.84 516.45 799.8 516.45 C 764.76 516.45 736.36 489.25 736.36 455.7 C 736.36 424.83 760.41 399.36 791.54 395.48 L 791.54 362.16 C 741.27 366.18 701.77 406.52 701.77 455.7 C 701.77 507.54 745.66 549.57 799.8 549.57 C 853.94 549.57 897.83 507.54 897.83 455.7 C 897.83 406.52 858.33 366.18 808.05 362.16"/><path d="M 355.67 516.54 L 380.27 492.98 C 361.12 469.16 362.92 434.86 385.72 413.03 C 410.5 389.3 450.67 389.3 475.45 413.03 C 500.22 436.75 500.22 475.22 475.45 498.95 C 452.65 520.77 416.83 522.5 391.95 504.16 L 367.35 527.71 C 405.86 558.92 463.58 557.14 499.9 522.36 C 538.19 485.7 538.19 426.27 499.9 389.61 C 461.62 352.95 399.55 352.95 361.26 389.61 C 324.95 424.39 323.09 479.66 355.67 516.54"/><path d="M 182.17 503.07 L 182.17 541.65 L 223.63 541.65 L 223.63 479.15 L 306.57 479.15 L 306.57 447.29 L 240.42 447.29 Z M 182.17 503.07"/><path d="M 182.17 370.09 L 182.17 486.96 L 223.63 447.26 L 223.63 401.95 L 317.57 401.95 L 317.57 370.09 Z M 182.17 370.09"/><path d="M 537.18 370.09 L 537.18 402.44 L 594.52 402.44 L 594.52 541.65 L 635.98 541.65 L 635.98 424.39 L 613.05 402.44 L 693.32 402.44 L 693.32 370.09 Z M 537.18 370.09"/><path d="M 210.29 712.12 C 211.06 711.6 211.45 710.87 211.45 709.93 C 211.45 708.96 211.06 708.21 210.29 707.7 C 209.51 707.18 208.39 706.92 206.93 706.92 L 202.99 706.92 L 202.99 712.89 L 206.93 712.89 C 208.39 712.89 209.51 712.64 210.29 712.12 M 211.41 706.92 C 212.48 707.64 213.02 708.65 213.02 709.93 C 213.02 711.2 212.48 712.2 211.41 712.92 C 210.34 713.64 208.86 714.01 206.96 714.01 L 202.99 714.01 L 202.99 717.78 L 201.43 717.78 L 201.43 705.82 L 206.96 705.82 C 208.86 705.82 210.34 706.19 211.41 706.92"/><path d="M 233.72 712.13 C 234.5 711.61 234.89 710.87 234.89 709.93 C 234.89 708.96 234.5 708.21 233.72 707.7 C 232.95 707.18 231.83 706.92 230.36 706.92 L 226.43 706.92 L 226.43 712.91 L 230.36 712.91 C 231.83 712.91 232.95 712.65 233.72 712.13 M 234.97 717.78 L 231.59 713.94 C 231.21 713.97 230.81 713.99 230.4 713.99 L 226.43 713.99 L 226.43 717.78 L 224.86 717.78 L 224.86 705.82 L 230.4 705.82 C 232.29 705.82 233.77 706.19 234.85 706.92 C 235.92 707.65 236.45 708.65 236.45 709.93 C 236.45 710.86 236.16 711.64 235.57 712.29 C 234.99 712.93 234.16 713.4 233.07 713.68 L 236.69 717.78 Z M 234.97 717.78"/><path d="M 258.26 716.12 C 259.21 715.69 259.95 715.1 260.48 714.34 C 261.02 713.58 261.29 712.74 261.29 711.8 C 261.29 710.87 261.02 710.02 260.48 709.27 C 259.95 708.51 259.21 707.92 258.26 707.49 C 257.32 707.06 256.26 706.85 255.09 706.85 C 253.92 706.85 252.86 707.06 251.91 707.49 C 250.95 707.92 250.21 708.51 249.66 709.27 C 249.12 710.02 248.85 710.87 248.85 711.8 C 248.85 712.74 249.12 713.58 249.66 714.34 C 250.21 715.1 250.95 715.69 251.91 716.12 C 252.86 716.54 253.92 716.76 255.09 716.76 C 256.26 716.76 257.32 716.54 258.26 716.12 M 251.1 717.09 C 249.91 716.56 248.98 715.84 248.31 714.91 C 247.64 713.99 247.3 712.95 247.3 711.8 C 247.3 710.65 247.64 709.62 248.31 708.7 C 248.98 707.77 249.91 707.05 251.1 706.52 C 252.29 705.99 253.62 705.72 255.09 705.72 C 256.55 705.72 257.88 705.98 259.05 706.51 C 260.23 707.03 261.16 707.76 261.84 708.69 C 262.52 709.61 262.85 710.65 262.85 711.8 C 262.85 712.95 262.52 713.99 261.84 714.92 C 261.16 715.85 260.23 716.57 259.05 717.1 C 257.88 717.62 256.55 717.88 255.09 717.88 C 253.62 717.88 252.29 717.62 251.1 717.09"/><path d="M 280.77 716.69 C 282.07 716.69 283.2 716.48 284.18 716.07 C 285.15 715.65 285.9 715.07 286.44 714.34 C 286.97 713.61 287.24 712.76 287.24 711.8 C 287.24 710.85 286.97 710 286.44 709.27 C 285.9 708.53 285.15 707.96 284.18 707.54 C 283.2 707.12 282.07 706.92 280.77 706.92 L 276.39 706.92 L 276.39 716.69 Z M 274.82 705.82 L 280.86 705.82 C 282.42 705.82 283.8 706.08 285 706.59 C 286.2 707.09 287.13 707.8 287.79 708.7 C 288.46 709.61 288.79 710.64 288.79 711.8 C 288.79 712.96 288.46 714 287.79 714.9 C 287.13 715.81 286.2 716.52 285 717.02 C 283.8 717.53 282.42 717.78 280.86 717.78 L 274.82 717.78 Z M 274.82 705.82"/><path d="M 302.24 716.55 C 301.17 715.66 300.63 714.37 300.63 712.68 L 300.63 705.82 L 302.2 705.82 L 302.2 712.62 C 302.2 714.01 302.59 715.05 303.36 715.73 C 304.14 716.41 305.26 716.76 306.72 716.76 C 308.2 716.76 309.33 716.41 310.11 715.73 C 310.88 715.05 311.27 714.01 311.27 712.62 L 311.27 705.82 L 312.8 705.82 L 312.8 712.68 C 312.8 714.37 312.26 715.66 311.2 716.55 C 310.13 717.44 308.64 717.88 306.72 717.88 C 304.81 717.88 303.31 717.44 302.24 716.55"/><path d="M 328.44 717.1 C 327.26 716.57 326.34 715.85 325.67 714.92 C 325 713.99 324.66 712.95 324.66 711.8 C 324.66 710.65 325 709.61 325.67 708.69 C 326.34 707.76 327.26 707.03 328.45 706.51 C 329.63 705.98 330.96 705.72 332.43 705.72 C 333.53 705.72 334.54 705.87 335.47 706.17 C 336.4 706.46 337.19 706.89 337.84 707.46 L 336.84 708.27 C 335.69 707.32 334.23 706.85 332.47 706.85 C 331.3 706.85 330.23 707.07 329.27 707.5 C 328.32 707.93 327.56 708.52 327.02 709.28 C 326.48 710.03 326.21 710.87 326.21 711.8 C 326.21 712.74 326.48 713.58 327.02 714.33 C 327.56 715.08 328.32 715.68 329.27 716.11 C 330.23 716.54 331.3 716.76 332.47 716.76 C 334.25 716.76 335.7 716.28 336.84 715.32 L 337.84 716.12 C 337.19 716.7 336.4 717.13 335.46 717.43 C 334.52 717.73 333.5 717.88 332.4 717.88 C 330.94 717.88 329.62 717.62 328.44 717.1"/><path d="M 352.33 706.92 L 347.12 706.92 L 347.12 705.82 L 359.1 705.82 L 359.1 706.92 L 353.89 706.92 L 353.89 717.78 L 352.33 717.78 Z M 352.33 706.92"/><path d="M 370.06 705.82 L 371.62 705.82 L 371.62 717.78 L 370.06 717.78 Z M 370.06 705.82"/><path d="M 394.55 716.12 C 395.5 715.69 396.24 715.1 396.77 714.34 C 397.31 713.58 397.58 712.74 397.58 711.8 C 397.58 710.87 397.31 710.02 396.77 709.27 C 396.24 708.51 395.5 707.92 394.55 707.49 C 393.61 707.06 392.55 706.85 391.38 706.85 C 390.21 706.85 389.15 707.06 388.2 707.49 C 387.24 707.92 386.5 708.51 385.95 709.27 C 385.41 710.02 385.14 710.87 385.14 711.8 C 385.14 712.74 385.41 713.58 385.95 714.34 C 386.5 715.1 387.24 715.69 388.2 716.12 C 389.15 716.54 390.21 716.76 391.38 716.76 C 392.55 716.76 393.61 716.54 394.55 716.12 M 387.39 717.09 C 386.2 716.56 385.27 715.84 384.6 714.91 C 383.93 713.99 383.59 712.95 383.59 711.8 C 383.59 710.65 383.93 709.62 384.6 708.7 C 385.27 707.77 386.2 707.05 387.39 706.52 C 388.58 705.99 389.91 705.72 391.38 705.72 C 392.84 705.72 394.17 705.98 395.34 706.51 C 396.52 707.03 397.45 707.76 398.12 708.69 C 398.8 709.61 399.14 710.65 399.14 711.8 C 399.14 712.95 398.8 713.99 398.12 714.92 C 397.45 715.85 396.52 716.57 395.34 717.1 C 394.17 717.62 392.84 717.88 391.38 717.88 C 389.91 717.88 388.58 717.62 387.39 717.09"/><path d="M 423.49 705.82 L 423.49 717.78 L 422.2 717.78 L 412.68 708.08 L 412.68 717.78 L 411.11 717.78 L 411.11 705.82 L 412.41 705.82 L 421.95 715.53 L 421.95 705.82 Z M 423.49 705.82"/><path d="M 481.25 717.1 C 480.07 716.57 479.14 715.85 478.48 714.92 C 477.8 713.99 477.47 712.95 477.47 711.8 C 477.47 710.65 477.8 709.61 478.48 708.69 C 479.14 707.76 480.07 707.03 481.26 706.51 C 482.44 705.98 483.77 705.72 485.23 705.72 C 486.34 705.72 487.35 705.87 488.28 706.17 C 489.21 706.46 490 706.89 490.65 707.46 L 489.66 708.27 C 488.5 707.32 487.04 706.85 485.28 706.85 C 484.11 706.85 483.04 707.07 482.08 707.5 C 481.12 707.93 480.38 708.52 479.83 709.28 C 479.29 710.03 479.02 710.87 479.02 711.8 C 479.02 712.74 479.29 713.58 479.83 714.33 C 480.38 715.08 481.12 715.68 482.08 716.11 C 483.04 716.54 484.11 716.76 485.28 716.76 C 487.05 716.76 488.52 716.28 489.66 715.32 L 490.65 716.12 C 490 716.7 489.21 717.13 488.27 717.43 C 487.33 717.73 486.31 717.88 485.21 717.88 C 483.75 717.88 482.43 717.62 481.25 717.1"/><path d="M 511.32 712.13 C 512.09 711.61 512.48 710.87 512.48 709.93 C 512.48 708.96 512.09 708.21 511.32 707.7 C 510.54 707.18 509.42 706.92 507.95 706.92 L 504.02 706.92 L 504.02 712.91 L 507.95 712.91 C 509.42 712.91 510.54 712.65 511.32 712.13 M 512.57 717.78 L 509.18 713.94 C 508.8 713.97 508.4 713.99 508 713.99 L 504.02 713.99 L 504.02 717.78 L 502.45 717.78 L 502.45 705.82 L 508 705.82 C 509.88 705.82 511.37 706.19 512.44 706.92 C 513.51 707.65 514.04 708.65 514.04 709.93 C 514.04 710.86 513.75 711.64 513.17 712.29 C 512.58 712.93 511.75 713.4 510.66 713.68 L 514.28 717.78 Z M 512.57 717.78"/><path d="M 536.68 716.69 L 536.68 717.78 L 526.21 717.78 L 526.21 705.82 L 536.36 705.82 L 536.36 706.92 L 527.77 706.92 L 527.77 711.17 L 535.43 711.17 L 535.43 712.25 L 527.77 712.25 L 527.77 716.69 Z M 536.68 716.69"/><path d="M 557.54 713.56 L 553.98 707.14 L 550.43 713.56 Z M 558.11 714.59 L 549.86 714.59 L 548.08 717.78 L 546.45 717.78 L 553.22 705.82 L 554.77 705.82 L 561.53 717.78 L 559.88 717.78 Z M 558.11 714.59"/><path d="M 574.59 706.92 L 569.38 706.92 L 569.38 705.82 L 581.36 705.82 L 581.36 706.92 L 576.15 706.92 L 576.15 717.78 L 574.59 717.78 Z M 574.59 706.92"/><path d="M 592.31 705.82 L 593.88 705.82 L 593.88 717.78 L 592.31 717.78 Z M 592.31 705.82"/><path d="M 619.3 705.82 L 612.75 717.78 L 611.2 717.78 L 604.64 705.82 L 606.34 705.82 L 612 716.21 L 617.71 705.82 Z M 619.3 705.82"/><path d="M 640.37 716.69 L 640.37 717.78 L 629.9 717.78 L 629.9 705.82 L 640.05 705.82 L 640.05 706.92 L 631.46 706.92 L 631.46 711.17 L 639.12 711.17 L 639.12 712.25 L 631.46 712.25 L 631.46 716.69 Z M 640.37 716.69"/><path d="M 686.46 716.69 C 687.76 716.69 688.89 716.48 689.87 716.07 C 690.84 715.65 691.6 715.07 692.13 714.34 C 692.67 713.61 692.94 712.76 692.94 711.8 C 692.94 710.85 692.67 710 692.13 709.27 C 691.6 708.53 690.84 707.96 689.87 707.54 C 688.89 707.12 687.76 706.92 686.46 706.92 L 682.09 706.92 L 682.09 716.69 Z M 680.52 705.82 L 686.55 705.82 C 688.11 705.82 689.5 706.08 690.7 706.59 C 691.89 707.09 692.82 707.8 693.48 708.7 C 694.15 709.61 694.48 710.64 694.48 711.8 C 694.48 712.96 694.15 714 693.48 714.9 C 692.82 715.81 691.89 716.52 690.7 717.02 C 689.5 717.53 688.11 717.78 686.55 717.78 L 680.52 717.78 Z M 680.52 705.82"/><path d="M 706.45 705.82 L 708.02 705.82 L 708.02 717.78 L 706.45 717.78 Z M 706.45 705.82"/><path d="M 731.73 711.8 L 733.23 711.8 L 733.23 716.36 C 732.54 716.86 731.72 717.23 730.78 717.49 C 729.84 717.75 728.84 717.88 727.8 717.88 C 726.32 717.88 724.98 717.62 723.8 717.1 C 722.61 716.57 721.68 715.85 721 714.92 C 720.33 713.99 719.99 712.95 719.99 711.8 C 719.99 710.65 720.33 709.61 721 708.69 C 721.68 707.76 722.61 707.03 723.8 706.51 C 724.98 705.98 726.32 705.72 727.82 705.72 C 728.95 705.72 729.98 705.87 730.93 706.16 C 731.87 706.45 732.67 706.88 733.32 707.45 L 732.34 708.25 C 731.17 707.32 729.68 706.85 727.88 706.85 C 726.68 706.85 725.6 707.06 724.63 707.49 C 723.67 707.92 722.91 708.51 722.36 709.27 C 721.81 710.02 721.54 710.87 721.54 711.8 C 721.54 712.74 721.81 713.58 722.36 714.33 C 722.91 715.08 723.66 715.68 724.62 716.11 C 725.58 716.54 726.66 716.76 727.86 716.76 C 729.38 716.76 730.67 716.45 731.73 715.84 Z M 731.73 711.8"/><path d="M 746.11 705.82 L 747.68 705.82 L 747.68 717.78 L 746.11 717.78 Z M 746.11 705.82"/><path d="M 763.84 706.92 L 758.64 706.92 L 758.64 705.82 L 770.61 705.82 L 770.61 706.92 L 765.41 706.92 L 765.41 717.78 L 763.84 717.78 Z M 763.84 706.92"/><path d="M 789.54 713.56 L 785.99 707.14 L 782.43 713.56 Z M 790.11 714.59 L 781.86 714.59 L 780.09 717.78 L 778.46 717.78 L 785.23 705.82 L 786.77 705.82 L 793.54 717.78 L 791.89 717.78 Z M 790.11 714.59"/><path d="M 804.45 705.82 L 806.02 705.82 L 806.02 716.69 L 814.31 716.69 L 814.31 717.78 L 804.45 717.78 Z M 804.45 705.82"/><path d="M 862.1 713.56 L 858.54 707.14 L 854.99 713.56 Z M 862.67 714.59 L 854.42 714.59 L 852.64 717.78 L 851.01 717.78 L 857.78 705.82 L 859.32 705.82 L 866.09 717.78 L 864.44 717.78 Z M 862.67 714.59"/><path d="M 877.01 705.82 L 878.57 705.82 L 878.57 717.78 L 877.01 717.78 Z M 877.01 705.82"/></g></svg>
